<svg width="906.5" height="489" xmlns="http://www.w3.org/2000/svg" xmlns:svg="http://www.w3.org/2000/svg">
 <style type="text/css">.st0{fill:#FFFFFF;}</style>
 <g>
  <title>Layer 1</title>
  <g id="Layer_1_1_">
   <polygon id="svg_1" points="849,489 605.5,245.5 851,0 906.5,0 906.5,49 711.4,244.3 906.5,439.4 906.5,489  " class="st0"/>
   <polygon id="svg_2" points="701.6,439.4 506.5,244.3 509.5,240.5 750,0 700,0 646.1,0 400.6,245.5 644.1,489 701.6,489 750,489    701.6,440.4  " class="st0"/>
   <polygon id="svg_3" points="546,0 453.6,92.5 361.1,0  " class="st0"/>
   <polygon id="svg_4" points="361.1,489 453.6,396.5 546,489  " class="st0"/>
   <polygon id="svg_5" points="906.5,336.2 814,243.7 906.5,151.2  " class="st0"/>
   <polygon id="svg_6" points="57.5,0 301,243.5 55.5,489 0,489 0,439.8 195.1,244.7 0,49.6 0,0  " class="st0"/>
   <polygon id="svg_7" points="206.3,439.4 401.4,244.3 398.4,240.5 157.8,0 207.9,0 261.7,0 507.3,245.5 263.8,489 206.3,489    157.8,489 206.3,440.4  " class="st0"/>
   <polygon id="svg_8" points="0,151.2 92.5,243.7 0,336.2  " class="st0"/>
  </g>
  <g id="Layer_6"/>
 </g>
</svg>
